<?xml version="1.0" encoding="UTF-8"?>
<svg id="Capa_1" data-name="Capa 1" xmlns="http://www.w3.org/2000/svg" viewBox="0 0 310.16 285.36">
  <defs>
    <style>
      .cls-1 {
        fill: #f8b05c;
      }

      .cls-2 {
        fill: #fabf6d;
      }

      .cls-3 {
        fill: #fabf6c;
      }

      .cls-4 {
        fill: #faba6b;
      }

      .cls-5 {
        fill: #f9b86b;
      }

      .cls-6 {
        fill: #fbc06d;
      }

      .cls-7 {
        fill: #e62754;
      }

      .cls-8 {
        fill: #e62954;
      }

      .cls-9, .cls-10 {
        fill: #e62851;
      }

      .cls-11 {
        fill: #e62150;
      }

      .cls-12 {
        fill: #e61c45;
      }

      .cls-13 {
        fill: #fffdfd;
      }

      .cls-14 {
        fill: #fffefd;
      }

      .cls-15 {
        fill: #fffefe;
      }

      .cls-16 {
        fill: #fefbfb;
      }

      .cls-17 {
        fill: #fbc26e;
      }

      .cls-18 {
        fill: #e72b51;
      }

      .cls-19 {
        fill: #e72b4e;
      }

      .cls-20 {
        fill: #e72b4f;
      }

      .cls-21 {
        fill: #923f7e;
      }

      .cls-22 {
        fill: #e5163e;
      }

      .cls-23 {
        fill: #140c1b;
      }

      .cls-24 {
        fill: #120b18;
      }

      .cls-25 {
        fill: #1e63ad;
      }

      .cls-26 {
        fill: #080813;
      }

      .cls-27 {
        fill: #1a63ae;
      }

      .cls-28 {
        fill: #1b63ae;
      }

      .cls-29 {
        fill: #1b64ae;
      }

      .cls-30 {
        fill: #1867b0;
      }

      .cls-31 {
        fill: #834386;
      }

      .cls-32, .cls-33, .cls-34 {
        fill: #2661ac;
      }

      .cls-10, .cls-35, .cls-36, .cls-37, .cls-33, .cls-34 {
        stroke-miterlimit: 10;
      }

      .cls-10, .cls-36, .cls-37, .cls-34 {
        stroke: #040505;
      }

      .cls-35 {
        fill: #ba945d;
        stroke: #1d1d1b;
      }

      .cls-36 {
        fill: #1e4a9a;
      }

      .cls-37 {
        fill: #3e80c2;
      }

      .cls-33 {
        stroke: #000;
      }
    </style>
  </defs>
  <g>
    <path class="cls-10" d="M118.43,284.71c-11.67,.05-23.34,.14-35.01,.15-8.18,0-17.5,0-25.68-.05-.21-.35,.84-.82,.87-1.23,.06-59.49,0-118.97,.04-178.46,0-1.79-.27-3.61,.44-5.34,1.37-1.84,2.22-.44,2.94,.58,2.14,3.02,4.45,5.87,6.93,8.64,8.68,9.7,19.42,16.14,31.35,20.99,4.75,1.93,9.6,3.38,14.51,4.74,1.13,.31,2.45,.34,2.83,1.83,1.24,1.67,1,3.61,1,5.49,0,45.47,0,90.95,0,136.42,0,1.7,0,3.41,.04,5.11,.03,.4-.05,.77-.25,1.12Z"/>
    <path class="cls-33" d="M184.05,284.7c-5.09,.06-10.19,.16-15.28,.16-16.59-.03-33.18-.1-49.78-.15-.09-.38-.16-.77-.2-1.17-.09-47.75-.02-95.5-.03-143.25,0-1.09-.09-2.21,.49-3.22,1.22-1.31,2.74-.97,4.21-.72,18.83,3.07,37.65,2.92,56.46-.24,1.44-.24,2.94-.89,4.3,.3,.84,1.37,.68,2.9,.68,4.39,.01,46.43,.01,92.86,0,139.3,0,1.57,.27,3.23-.85,4.61Z"/>
    <path class="cls-34" d="M244.68,94.69c13.32,8.47,26.47,17.2,39.51,26.11,7.75,5.3,15.99,9.86,23.4,15.68,.47,.37,.93,.75,1.4,1.12,.87,1.59,.59,3.32,.59,5.01,.01,45.68,0,91.37,.01,137.05,0,1.5-.05,3.01,.06,4.51-.32,.94-1.14,.65-1.78,.65-20.84,0-41.68,0-62.52-.01-.3,0-.59-.09-.89-.14-.55-.65-.69-1.45-.69-2.25,0-6.71-.29-13.42,.15-20.12,1.77-4.07,4.59-6.61,9.07-7.91,13.44-3.87,22.25-12.56,25.73-26.3,.34-1.35,.47-2.77,1.15-4.03,.19-.26,.37-.51,.54-.78,.17-15.92,.07-31.82,.04-47.71-.05-.26-.15-.5-.3-.71-.52-.26-.97,0-1.43,.21-3.21,1.64-6.59,2.85-9.85,4.36-1.51,.7-2.87,.62-4.24-.29-1.25-.83-2.71-1.33-3.88-2.24-2.96-2.3-5.82-2.53-9.03-.39-1.81,1.2-3.79,2.22-5.79,3.1-1.36,.6-2.95,.9-2.51-1.62,.33-1.79,.29-3.6,.29-5.4,0-23.85,0-47.69,0-71.54,0-1.8-.05-3.61,.33-5.39,.13-.38,.35-.71,.66-.97Z"/>
    <path class="cls-10" d="M244.65,261.44c0,7.74,0,15.47,0,23.21-10.77,.06-21.53,.15-32.3,.15-9.37,0-18.74-.1-28.11-.16,0-49.46-.02-98.92-.03-148.38,.35-1.23,1.45-1.24,2.4-1.45,10.74-2.4,20.63-6.96,30.19-12.22,7.73-4.25,13.51-10.86,19.41-17.24,2.37-2.56,4.53-5.32,6.3-8.37,.45-.78,.92-1.89,2.25-1.49-.03,26.72-.05,53.43-.12,80.15,0,1.2,.66,2.64-.76,3.58-1.07,.53-1.93-.08-2.8-.55-.79-.43-1.6-.85-2.32-1.37-3.92-2.86-7.75-2.71-11.53,.25-3.35,2.62-6.71,3.08-10.45,.59-1.89-1.26-4.25-1.74-6.21-2.97-.22-.12-.43-.25-.65-.37,.41-1.08-.18,.09-.24,.65-.06,16.06-.12,32.13-.12,48.15,.24,.13-.11,.32,.08,.51,.31,.49,.41,1.05,.48,1.61,2.76,15.03,11.76,24.41,26.22,28.71,3.86,1.15,6.68,3.29,8.3,6.98Z"/>
    <path class="cls-36" d="M119.22,136.85c-9.7-2.43-21.36-6.52-30.26-11.1-11.44-5.88-20.52-14.4-27.87-24.86-.46-.65-1.55-.47-2.01-1.11-.55-.2-.36,.03-.69-.44-.14-.76-.91-.86-1.45-1.36,3.78-3.31,8.52-8.56,12.88-11.12,.59,.25,.94,.75,1.22,1.28,6.73,12.75,17.96,20.17,30.7,25.71,14.15,6.15,28.98,8.87,44.41,9.06,13.28,.16,26.37-.6,39.29-3.99,12.02-3.15,22.74-8.81,32.74-15.98,5.18-3.71,8.45-9.02,11.49-14.47,.52-.94,.68-2.15,1.9-2.57,4.41,2.68,8.85,5.33,12.72,8.79-.03,.28-.07,.56-.1,.83-2.76,2.61-4.33,6.09-6.69,9.02-13.51,16.76-31.35,26.13-51.88,31.08-.67,.16-1.32,.44-1.98,.66-13.83,3.06-27.86,3.34-41.92,2.95-6.45-.18-12.91-.57-19.22-2.15-1.04-.26-2.18-.16-3.27-.23-.36-.02-.31,.62-.53,.45"/>
    <path class="cls-37" d="M231.96,85.89c-3.94,10.09-11.08,17.17-20.26,22.75-13.05,7.94-27.17,12.66-42.17,14.23-20.76,2.18-41.5,1.6-61.37-5.69-13.12-4.81-25.44-11.2-33.92-23.02-1.62-2.26-3.23-4.57-4.02-7.31,1.22-1.18,2.64-2.05,4.17-2.76,1.15,.52,1.27,1.71,1.77,2.66,3.54,6.82,7.96,12.88,14.73,16.89,.27,.13,.52,.28,.77,.43,.4,.23,.76,.51,1.17,.73,12.54,7.68,26.19,12.14,40.71,14.09,5.74,.77,11.51,1.08,17.3,.91,16.26,.41,31.84-2.69,46.85-8.91,4.29-1.78,8.02-4.52,12.07-6.68,7.66-3.9,12.71-10.15,16.09-17.91,.46-1.06,.62-2.39,1.95-2.88,1.38,.83,2.77,1.65,4.15,2.48Z"/>
    <path class="cls-33" d="M57.07,284.8c-17.73,0-35.47-.05-53.2,.06-2.63,.02-3.38-.66-3.37-3.34,.09-47.59,.07-95.19,.07-142.78,2.89-2.94,6.27-5.28,9.66-7.55,15.71-10.51,30.35-22.52,46.24-32.77,1.01,.41,1.15,1.28,1.18,2.22,.02,.9,.02,1.8,.02,2.7,0,59.03,0,118.06-.02,177.09,0,1.46,.41,3.02-.58,4.37Z"/>
    <path class="cls-24" d="M244.86,261.1c-3.41-5.71-9.95-5.84-15.06-8.53-11.01-5.78-18.49-14.31-20.14-27.11,.08-2.88-.39-5.72-.37-8.61,.09-12.92,.03-25.84,.06-38.76,0-1.46-.36-3.04,.82-4.29,2.66,1.2,5.55,2.05,7.92,3.67,3.1,2.13,5.64,1.25,8.33-.43,.08-.05,.14-.14,.22-.2,4.02-3.32,8.15-3.85,12.57-.67,1.5,1.08,3.25,1.83,4.89,2.73,2.84,.22,4.77-1.86,6.85-3.13,3.84-2.34,7.26-2.79,10.77,.26,3.75,3.26,7.54,3.06,11.61,.52,1.84-1.15,4-1.78,6.02-2.64,1.88,.95,1.38,2.74,1.39,4.26,.05,13.13,.02,26.25,.03,39.38,0,1.5-.07,3.01,.15,4.5,.13,.6,.01,1.15-.3,1.66-1.47,16.16-15.14,29.11-28.46,31.45-3.5,.62-4.8,4.04-7.29,5.94Z"/>
    <path class="cls-35" d="M210.48,71.84c-.06,.03,0-.11-.07-.08-.18-.21-.47-.25-.65-.46l-.3-3.27-117.72,1.16s.28,2.94-.15,3.37c-4.61,4.61-11.95,7.69-17.21,11.53,3.4,8.4,9.46,16.34,17.58,20.91,29.75,19.7,58.91,15.61,58.91,15.61,6.71,.41,13.36-.23,19.96-1.28,14.21-2.26,27.45-6.28,39.42-14.6,0,0,.28-.19,.28-.19,.87-.47,1.77-.89,2.6-1.42,7.39-4.7,11.69-11.72,14.67-19.7-5.79-3.83-11.23-8.19-17.32-11.57Z"/>
    <path class="cls-5" d="M212.19,177.74c2.09,.86,4.29,1.52,6.24,2.63,2.24,1.28,4.15,1.2,6.32-.12,2.31-1.41,4.85-2.44,7.17-3.84,1.16-.7,1.91-.03,2.7,.37,2.46,1.23,4.91,2.52,7.28,3.92,1.62,.96,3.14,.91,4.71,.05,2.45-1.34,4.92-2.67,7.34-4.07,1.11-.64,2.1-.68,3.22-.05,2.7,1.52,5.46,2.91,8.12,4.48,1.16,.69,2.08,.74,3.31,.16,2.6-1.24,5.29-2.29,7.95-3.41,1.53,.67,1.39,2.07,1.39,3.34,.04,13.59,.02,27.18,.04,40.77,0,1.11-.52,2.13-.35,3.24-1.91,13.7-11.67,24.58-25.1,27.74-2.63,.62-4.94,1.46-6.47,3.76-1.21,1.82-2.2,1.43-3.29-.12-1.5-2.12-3.67-2.69-6.18-3.25-4.8-1.06-9.28-3.17-13.08-6.46-1-.79-1.88-1.73-2.92-2.48-4.8-5.13-7.87-11.17-9.5-17.97,.75-1.19,.52-2.52,.48-3.79-.52-13.85-.09-27.7-.21-41.54-.01-1.17-.16-2.42,.83-3.37Z"/>
    <path class="cls-2" d="M212.19,177.74c0,15.23,.01,30.46-.03,45.69,0,1.05,.7,2.52-1.07,3.01-.06-1.61-.12-3.21-.18-4.82-.48-2.47-.19-4.96-.2-7.43-.04-11.25-.03-22.5,0-33.75,0-1.07-.32-2.19,.32-3.21,.48-.04,.91,.05,1.16,.51Z"/>
    <path class="cls-26" d="M278.26,177.17c.72,.45,.67,1.17,.67,1.87,0,14.91,0,29.83,0,44.74,0,.28-.08,.56-.17,.82,0,.03-.32-.05-.49-.07-.43-1.06-.21-2.18-.22-3.27-.02-13.61-.02-27.21,0-40.82,0-1.09-.21-2.2,.21-3.27Z"/>
    <path class="cls-23" d="M211.03,177.23c-.04,14.8-.08,29.59-.12,44.39-.5-.45-.52-1.04-.52-1.65,0-13.98,0-27.96,0-41.94,0-.28,.07-.57,.15-.83,.01-.04,.32,.02,.48,.03Z"/>
    <path class="cls-9" d="M235.19,216.91c-2.79,.96-5.67,.31-8.5,.43-1.52,.06-1.26-1.16-1.33-2.12-.25-3.23,.54-6.5-.42-9.7-.08-.08-.16-.16-.24-.23-2.86-.95-5.84-.02-8.73-.51-.59-3.34-1.19-6.67,.41-9.92,2.88-.88,5.75-1.09,8.58,.22,.86-2.51,.31-5.11,.36-7.66,.03-1.5,.44-2.42,1.9-2.95,1.49-.55,2.95-1.22,4.36-1.96,1.44-.76,2.64-.8,3.65,.63,.01,.16,.02,.31,.03,.47,.04,2.57-.03,5.15,.02,7.72,.02,.96-.26,2.03,.82,2.67,2.8,.6,5.64,.23,8.45,.43,.05-1.1,.15-2.19,.15-3.29,.02-4.63,.34-5.02,5.42-6.27,0,10.25-.04,20.45,.03,30.65,.02,2.38-1.57,1.81-2.87,1.85-1.28,.04-2.58,.29-2.61-1.82-.05-3.37,.52-6.77-.36-10.1-2.51,1.63-5.44,.34-8.06,1.14-1.13,.54-.95,1.59-.97,2.54-.04,2.44,.03,4.87-.01,7.31-.02,.16-.04,.31-.05,.47Z"/>
    <path class="cls-18" d="M262.02,216.74c-1.31,1.12-2.87,.5-4.32,.64-1.36,.13-1.67-.64-1.66-1.83,.02-11.08,.01-22.16,.01-33.46,2.37,.62,4.33,1.46,5.96,2.99,.64,10.55,.61,21.11,.02,31.67Z"/>
    <path class="cls-32" d="M238.05,248.07c-3.71-.73-7.15-2.09-10.26-4.25-.11-.33-.17-.67-.18-1.02-.07-5.7,.08-11.41-.09-17.11-.01-.36,.08-.69,.29-.98,3.78,0,7.57,0,11.35,.01,1.35,1.54,.97,3.31,.67,5.07-.2,.47-.47,.87-1.04,.92-.96-1.33-.11-2.79-.33-3.5,.04-1.09-.32-.8-.3-.75,.48,1.33-.2,2.8,.45,4.14,.04,.09,.15,.21,.12,.26-2.22,4.25-1.72,8.43,.28,12.58-.35,1.53,.24,3.27-.97,4.62Z"/>
    <path class="cls-32" d="M261.51,243.7c-3.13,2.12-6.53,3.59-10.24,4.33-1.29-1.51-.57-3.4-.94-5.07,.4-1.88,1.1-3.63,2.26-5.17,.09-.43,.96,.6,.58-.18-.23-.47,1.09-1.69-.6-1.45-1.02-1.56-2.01-3.12-1.98-5.08,.92-1.42,0-3.07,.52-4.55-.44,1.39,.29,2.94-.53,4.29-.37,.04-.66-.1-.86-.41-.67-1.96-.96-3.89,.44-5.69,3.78,0,7.56,0,11.33-.01,.21,.29,.31,.61,.3,.97-.17,5.67,.01,11.33-.09,17-.04,.34-.1,.68-.18,1.01Z"/>
    <path class="cls-9" d="M268.05,186.73c1.36-1.08,2.99-1.44,4.79-2.06v31.56c-4.3,1.43-5.33,.77-5.33-3.49-.01-7.5,0-15,0-22.5,0-1.19-.13-2.41,.54-3.51Z"/>
    <path class="cls-9" d="M226.56,242.85c-5.49-4.33-8.27-10.24-9.84-16.86-.36-1.5,.66-1.38,1.55-1.38,2.78,.02,5.57,.07,8.35,.1,.72,.81,.82,1.79,.83,2.81,.03,4.2,.04,8.39,0,12.59-.01,.99,0,2.02-.89,2.75Z"/>
    <path class="cls-9" d="M262.07,224.71c2.8-.04,5.6-.02,8.4-.13,1.68-.06,2.19,.68,1.78,2.19-1.7,6.19-4.49,11.74-9.56,15.91-1.01-.95-.82-2.2-.82-3.38-.02-4.5-.04-9,0-13.51,.01-.37,.08-.73,.2-1.08Z"/>
    <path class="cls-13" d="M235.13,205.42c3.05-.32,6.1-.35,9.14,.02-.03,3.27-.11,6.54-.07,9.81,.02,1.45-.35,2.3-1.98,2.14-2.34-.23-4.74,.49-7.03-.48,0,0-.16-.08-.16-.08-.39-3.81-.59-7.61,.1-11.41Z"/>
    <path class="cls-15" d="M224.94,205.52c-.02,3.27-.11,6.55-.05,9.82,.03,1.53-.49,2.24-2.05,2.05-2.31-.29-4.74,.66-6.96-.65-.6-3.54-.6-7.09,0-10.63,2.82-1.56,5.92-.18,8.83-.81,.08,.08,.16,.15,.23,.23Z"/>
    <path class="cls-16" d="M244.53,194.43c-1.38,1.78-3.29,.63-4.93,.83-1.47,.18-2.98-.04-4.47-.09-.69-4-.51-8-.09-12.01,0,0,.17-.01,.17-.01,2.89,.43,5.31,2.01,7.88,3.22,1.09,.52,1.05,1.51,1.12,2.52,.12,1.85-.41,3.73,.32,5.54Z"/>
    <path class="cls-14" d="M224.96,195.07c-2.87,.07-5.74,.14-8.6,.22-.42,.1-.69-.06-.81-.48,.17-3.25-.51-6.52,.35-9.74,1.54-.85,2.61,.45,3.79,.95,1.63,.69,3.14,1.25,5.27-.64v9.69Z"/>
    <path class="cls-8" d="M242.37,249.24c-1.07-.33-2.15-.66-3.22-.99-.74-1.49-.6-3.03-.25-4.58,.15-.42,.5-.69,.89-.53,3.24,1.38,6.46,1.27,9.69-.03,.37-.15,.75,.11,.96,.49,.31,1.56,.49,3.12-.27,4.62-1.09,.33-2.18,.66-3.27,1-1.5,.6-3.01,.56-4.52,.03Z"/>
    <path class="cls-7" d="M250.15,224.72c-.03,1.92-.07,3.85-.1,5.77-.24,.21-.56,.33-.81,.17-2.84-1.86-5.77-1.93-8.79-.5-.36,.17-.78,.13-1.17-.01-.04-1.81-.08-3.62-.12-5.43,3.66,0,7.32,0,10.98,0Z"/>
    <path class="cls-11" d="M268.05,186.73c.02,8.23,.02,16.46,.06,24.69,.03,5.51-.65,4.72,4.73,4.81-1.17,2.42-3.28,.92-4.9,.99-1.39,.06-.91-1.51-.91-2.4-.04-8.56-.03-17.11,0-25.67,0-.9-.44-2.1,1.02-2.42Z"/>
    <path class="cls-6" d="M255.39,182.75v33.87h-.3v-33.99l.3,.12Z"/>
    <path class="cls-3" d="M262.02,216.74c0-10.56-.01-21.11-.02-31.67,.53-.33,.69-.03,.69,.43,0,10.26,0,20.51,0,30.77,0,.17-.06,.41-.18,.51-.09,.08-.32-.02-.49-.04Z"/>
    <path class="cls-17" d="M251.19,185.16v31.47h-.3v-31.58c.1,.04,.2,.07,.3,.11Z"/>
    <path class="cls-21" d="M262.07,224.71c.01,.19,.04,.38,.08,.57,.37,5.96,.4,11.92-.03,17.88-.21,.18-.41,.36-.62,.54-.06-.16-.1-.31-.13-.48-.29-5.98-.31-11.95,.01-17.93,.03-.19,.06-.39,.09-.59,.2,0,.39,0,.59,0Z"/>
    <path class="cls-31" d="M227.82,224.71c.03,.2,.06,.4,.09,.59,.34,5.98,.35,11.96,0,17.93-.04,.19-.07,.39-.11,.58-.21-.17-.41-.34-.62-.5-.35-6.2-.47-12.4,.06-18.6h.59Z"/>
    <path class="cls-19" d="M227.22,224.71c-.02,6.2-.04,12.4-.06,18.6-.2-.15-.4-.31-.6-.46,.02-6.05,.04-12.09,.06-18.14,.2,0,.4,0,.6,0Z"/>
    <path class="cls-20" d="M262.13,243.16c0-5.96,.02-11.92,.03-17.88,1.15,2.25,.41,4.66,.5,6.98,.14,3.47,.04,6.94,.04,10.41-.19,.16-.38,.32-.57,.49Z"/>
    <path class="cls-28" d="M250.16,248.22c-.03-1.64-.06-3.28-.09-4.93-.11-.56,.06-.81,.65-.59,1.1,1.68,.3,3.56,.54,5.33-.37,.06-.73,.13-1.1,.19Z"/>
    <path class="cls-1" d="M215.89,185.07c.05,3.35,.09,6.7,.14,10.05-.25,.29-.53,.31-.83,.07,0-3.33,.01-6.67,.03-10,0-.07,.1-.19,.16-.2,.17,0,.34,.05,.51,.08Z"/>
    <path class="cls-28" d="M239.23,243.41c-.03,1.61-.05,3.23-.08,4.84-.37-.06-.74-.12-1.1-.18,.29-1.61-.69-3.42,.75-4.86,.22-.1,.36-.03,.43,.2Z"/>
    <path class="cls-4" d="M242.37,249.24c1.51,0,3.01-.02,4.52-.03,.44,.07,.88,.13,1.32,.2-.01,.12-.02,.23-.04,.35h-7.12c.31-.7,.89-.38,1.31-.53Z"/>
    <path class="cls-22" d="M235.04,183.16c.03,4,.06,8,.09,12.01-1.19-3.99-1.03-8-.09-12.01Z"/>
    <path class="cls-22" d="M235.13,205.42c-.03,3.8-.07,7.6-.1,11.41-.9-3.81-1.08-7.61,.1-11.41Z"/>
    <path class="cls-12" d="M243.97,196.26h-8.25c0-.1,0-.19,0-.29h8.13c.04,.1,.08,.19,.12,.29Z"/>
    <path class="cls-5" d="M239.23,243.41c-.12-.11-.27-.17-.43-.2-3.44-4.95-3.47-7.49-.13-12.53h0c.21-.17,.41-.35,.62-.53,3.67-2.45,7.27-2.51,10.77,.34,.17,.12,.35,.25,.52,.37,.22-.04,.33,0,.33,.12,0,.15-.03,.23-.09,.23,1.15,1.48,1.59,3.27,2.19,4.98,.52,.51,.53,1.03,0,1.54-.59,1.73-1.11,3.49-2.27,4.96-.22,.2-.43,.39-.65,.59-3.59,2.28-7.2,2.47-10.84,.12Z"/>
    <path class="cls-30" d="M227.9,243.23c0-5.98,0-11.96,0-17.93,1.15,4.6,.28,9.27,.48,13.9,.06,1.33,.52,2.79-.49,4.03Z"/>
    <path class="cls-29" d="M238.67,230.68c-1.25-1.49-.57-3.87-.23-5.48,0,1.59,.22,3.89,.22,5.48,0,0,0,0,0,0Z"/>
    <path class="cls-25" d="M261.39,225.3c0,5.98,0,11.95-.01,17.93-1.09-5.2-.21-10.46-.48-15.68-.04-.77-.19-1.61,.49-2.24Z"/>
    <path class="cls-27" d="M250.81,231.21c-.16-.06-.24-.18-.24-.35,0-1.66,0-3.32,0-4.98,.71,1.79,1.06,3.57,.24,5.33Z"/>
    <path class="cls-32" d="M253.37,235.5c.63,.92,.35,1.95,.14,2.87-.05,.24-.37-.37-.51-.64,0-.51,0-1.03,0-1.54"/>
  </g>
  <path class="cls-35" d="M91.75,73.37l-.55-25.1,52.72,12.47c3.31,.92,6.82,.87,10.11-.13l55.24-14.65,.19,25.1"/>
</svg>